<svg width="443" height="533" viewBox="0 0 443 533" fill="none" xmlns="http://www.w3.org/2000/svg">
<g filter="url(#filter0_d_883_7368)">
<path d="M124.541 206.02L138.021 186.998L157.829 201.988L144.349 221.009L124.541 206.02Z" fill="#FF8700"/>
<path fill-rule="evenodd" clip-rule="evenodd" d="M141.733 189.811L128.254 208.832L127.635 208.363L141.114 189.342L141.733 189.811Z" fill="white"/>
<path fill-rule="evenodd" clip-rule="evenodd" d="M143.589 191.217L130.109 210.238L129.49 209.77L142.97 190.748L143.589 191.217Z" fill="white"/>
<path fill-rule="evenodd" clip-rule="evenodd" d="M145.45 192.615L131.971 211.636L131.352 211.168L144.831 192.147L145.45 192.615Z" fill="white"/>
<path fill-rule="evenodd" clip-rule="evenodd" d="M147.306 194.025L133.826 213.047L133.207 212.578L146.687 193.557L147.306 194.025Z" fill="white"/>
<path fill-rule="evenodd" clip-rule="evenodd" d="M149.163 195.432L135.683 214.453L135.064 213.984L148.544 194.963L149.163 195.432Z" fill="white"/>
<path fill-rule="evenodd" clip-rule="evenodd" d="M151.017 196.834L137.537 215.855L136.918 215.387L150.398 196.366L151.017 196.834Z" fill="white"/>
<path fill-rule="evenodd" clip-rule="evenodd" d="M152.876 198.24L139.396 217.261L138.777 216.793L152.257 197.772L152.876 198.24Z" fill="white"/>
<path fill-rule="evenodd" clip-rule="evenodd" d="M154.732 199.65L141.252 218.672L140.633 218.203L154.113 199.182L154.732 199.65Z" fill="white"/>
<path fill-rule="evenodd" clip-rule="evenodd" d="M156.591 201.049L143.111 220.07L142.492 219.602L155.972 200.58L156.591 201.049Z" fill="white"/>
<path d="M107.668 193.324L121.148 174.303L140.956 189.293L127.476 208.314L107.668 193.324Z" fill="#FF8700"/>
<path fill-rule="evenodd" clip-rule="evenodd" d="M124.86 177.115L111.381 196.136L110.762 195.668L124.241 176.647L124.86 177.115Z" fill="white"/>
<path fill-rule="evenodd" clip-rule="evenodd" d="M126.716 178.521L113.236 197.543L112.617 197.074L126.097 178.053L126.716 178.521Z" fill="white"/>
<path fill-rule="evenodd" clip-rule="evenodd" d="M128.577 179.92L115.098 198.941L114.479 198.473L127.958 179.452L128.577 179.92Z" fill="white"/>
<path fill-rule="evenodd" clip-rule="evenodd" d="M130.433 181.33L116.953 200.351L116.334 199.883L129.814 180.862L130.433 181.33Z" fill="white"/>
<path fill-rule="evenodd" clip-rule="evenodd" d="M132.29 182.736L118.81 201.757L118.191 201.289L131.671 182.268L132.29 182.736Z" fill="white"/>
<path fill-rule="evenodd" clip-rule="evenodd" d="M134.144 184.139L120.664 203.16L120.045 202.691L133.525 183.67L134.144 184.139Z" fill="white"/>
<path fill-rule="evenodd" clip-rule="evenodd" d="M136.003 185.545L122.523 204.566L121.904 204.098L135.384 185.077L136.003 185.545Z" fill="white"/>
<path fill-rule="evenodd" clip-rule="evenodd" d="M137.858 186.955L124.379 205.976L123.76 205.508L137.239 186.487L137.858 186.955Z" fill="white"/>
<path fill-rule="evenodd" clip-rule="evenodd" d="M139.718 188.354L126.238 207.375L125.619 206.906L139.099 187.885L139.718 188.354Z" fill="white"/>
<path d="M24.2832 129.348L37.7629 110.327L57.571 125.316L44.0913 144.337L24.2832 129.348Z" fill="#FF8700"/>
<path fill-rule="evenodd" clip-rule="evenodd" d="M41.4757 113.139L27.996 132.16L27.377 131.691L40.8567 112.67L41.4757 113.139Z" fill="white"/>
<path fill-rule="evenodd" clip-rule="evenodd" d="M43.3311 114.545L29.8514 133.566L29.2324 133.098L42.7121 114.077L43.3311 114.545Z" fill="white"/>
<path fill-rule="evenodd" clip-rule="evenodd" d="M45.1925 115.943L31.7128 134.965L31.0938 134.496L44.5735 115.475L45.1925 115.943Z" fill="white"/>
<path fill-rule="evenodd" clip-rule="evenodd" d="M47.0479 117.354L33.5682 136.375L32.9492 135.906L46.4289 116.885L47.0479 117.354Z" fill="white"/>
<path fill-rule="evenodd" clip-rule="evenodd" d="M48.9054 118.76L35.4256 137.781L34.8066 137.312L48.2864 118.291L48.9054 118.76Z" fill="white"/>
<path fill-rule="evenodd" clip-rule="evenodd" d="M50.7589 120.162L37.2792 139.183L36.6602 138.715L50.1399 119.694L50.7589 120.162Z" fill="white"/>
<path fill-rule="evenodd" clip-rule="evenodd" d="M52.6182 121.568L39.1385 140.59L38.5195 140.121L51.9992 121.1L52.6182 121.568Z" fill="white"/>
<path fill-rule="evenodd" clip-rule="evenodd" d="M54.4737 122.979L40.994 142L40.375 141.531L53.8547 122.51L54.4737 122.979Z" fill="white"/>
<path fill-rule="evenodd" clip-rule="evenodd" d="M56.3331 124.377L42.8534 143.398L42.2344 142.93L55.7141 123.909L56.3331 124.377Z" fill="white"/>
<path d="M37.8099 149.104C36.1005 147.81 35.7296 145.33 36.9814 143.563L55.1135 117.977C56.3653 116.211 58.7657 115.828 60.4751 117.121L128.566 168.648C130.275 169.942 130.646 172.422 129.394 174.189L111.262 199.775C110.01 201.541 107.61 201.924 105.9 200.631L37.8099 149.104Z" fill="#FF8700"/>
<path d="M117.309 183.83C116.483 186.315 113.864 187.638 111.459 186.785C109.055 185.931 107.775 183.224 108.602 180.739C109.428 178.253 112.047 176.93 114.451 177.784C116.856 178.637 118.135 181.344 117.309 183.83Z" fill="#B5C0C9"/>
<path fill-rule="evenodd" clip-rule="evenodd" d="M113.855 179.58C113.566 179.477 113.252 179.636 113.153 179.934L112.613 181.557L111.046 181C110.757 180.898 110.443 181.056 110.344 181.355C110.245 181.653 110.398 181.978 110.687 182.08L112.254 182.637L111.716 184.255C111.617 184.553 111.771 184.878 112.059 184.98C112.348 185.083 112.662 184.924 112.761 184.626L113.299 183.008L114.866 183.564C115.155 183.666 115.469 183.507 115.568 183.209C115.667 182.911 115.514 182.586 115.225 182.484L113.658 181.927L114.198 180.305C114.297 180.007 114.143 179.682 113.855 179.58Z" fill="white"/>
<path d="M58.5083 138.646C57.682 141.132 55.063 142.454 52.6585 141.601C50.254 140.747 48.9746 138.041 49.8008 135.555C50.6271 133.07 53.2461 131.747 55.6506 132.6C58.0551 133.454 59.3345 136.16 58.5083 138.646Z" fill="#B5C0C9"/>
<path fill-rule="evenodd" clip-rule="evenodd" d="M55.0538 134.396C54.7652 134.294 54.451 134.452 54.3518 134.75L53.8125 136.373L52.2452 135.817C51.9566 135.714 51.6422 135.873 51.5431 136.171C51.4439 136.469 51.5975 136.794 51.8862 136.897L53.4535 137.453L52.9155 139.071C52.8164 139.369 52.97 139.694 53.2585 139.797C53.5471 139.899 53.8613 139.74 53.9604 139.442L54.4984 137.824L56.0654 138.38C56.354 138.483 56.6684 138.324 56.7675 138.026C56.8667 137.727 56.7131 137.403 56.4244 137.3L54.8574 136.744L55.3967 135.121C55.4958 134.823 55.3423 134.498 55.0538 134.396Z" fill="white"/>
<path d="M17.3742 132.198C15.6649 130.904 15.2941 128.424 16.5459 126.657L34.6791 101.072C35.931 99.3056 38.3314 98.9223 40.0407 100.216L45.0802 104.03C46.7895 105.323 47.1603 107.804 45.9085 109.57L27.7753 135.156C26.5234 136.922 24.123 137.305 22.4137 136.012L17.3742 132.198Z" fill="#FF8700"/>
<path d="M324.988 224.879L308.506 241.181L291.53 222.852L308.012 206.55L324.988 224.879Z" fill="#FF8700"/>
<path fill-rule="evenodd" clip-rule="evenodd" d="M305.325 237.737L321.807 221.435L322.338 222.008L305.856 238.309L305.325 237.737Z" fill="white"/>
<path fill-rule="evenodd" clip-rule="evenodd" d="M303.733 236.022L320.216 219.72L320.746 220.293L304.264 236.595L303.733 236.022Z" fill="white"/>
<path fill-rule="evenodd" clip-rule="evenodd" d="M302.14 234.307L318.622 218.005L319.152 218.578L302.67 234.88L302.14 234.307Z" fill="white"/>
<path fill-rule="evenodd" clip-rule="evenodd" d="M300.548 232.588L317.03 216.287L317.561 216.859L301.078 233.161L300.548 232.588Z" fill="white"/>
<path fill-rule="evenodd" clip-rule="evenodd" d="M298.956 230.869L315.438 214.568L315.969 215.141L299.487 231.442L298.956 230.869Z" fill="white"/>
<path fill-rule="evenodd" clip-rule="evenodd" d="M297.366 229.155L313.848 212.853L314.379 213.426L297.897 229.727L297.366 229.155Z" fill="white"/>
<path fill-rule="evenodd" clip-rule="evenodd" d="M295.774 227.432L312.257 211.13L312.787 211.703L296.305 228.005L295.774 227.432Z" fill="white"/>
<path fill-rule="evenodd" clip-rule="evenodd" d="M294.183 225.713L310.665 209.412L311.195 209.984L294.713 226.286L294.183 225.713Z" fill="white"/>
<path fill-rule="evenodd" clip-rule="evenodd" d="M292.589 223.994L309.071 207.693L309.602 208.266L293.119 224.567L292.589 223.994Z" fill="white"/>
<path d="M339.461 240.418L322.979 256.72L306.003 238.391L322.485 222.09L339.461 240.418Z" fill="#FF8700"/>
<path fill-rule="evenodd" clip-rule="evenodd" d="M319.798 253.276L336.28 236.974L336.811 237.547L320.328 253.849L319.798 253.276Z" fill="white"/>
<path fill-rule="evenodd" clip-rule="evenodd" d="M318.206 251.561L334.688 235.259L335.219 235.832L318.737 252.134L318.206 251.561Z" fill="white"/>
<path fill-rule="evenodd" clip-rule="evenodd" d="M316.612 249.846L333.094 233.544L333.625 234.117L317.143 250.419L316.612 249.846Z" fill="white"/>
<path fill-rule="evenodd" clip-rule="evenodd" d="M315.021 248.127L331.503 231.826L332.033 232.398L315.551 248.7L315.021 248.127Z" fill="white"/>
<path fill-rule="evenodd" clip-rule="evenodd" d="M313.429 246.409L329.911 230.107L330.441 230.68L313.959 246.981L313.429 246.409Z" fill="white"/>
<path fill-rule="evenodd" clip-rule="evenodd" d="M311.839 244.694L328.321 228.392L328.852 228.965L312.369 245.266L311.839 244.694Z" fill="white"/>
<path fill-rule="evenodd" clip-rule="evenodd" d="M310.247 242.971L326.729 226.669L327.26 227.242L310.778 243.544L310.247 242.971Z" fill="white"/>
<path fill-rule="evenodd" clip-rule="evenodd" d="M308.655 241.252L325.137 224.951L325.668 225.523L309.186 241.825L308.655 241.252Z" fill="white"/>
<path fill-rule="evenodd" clip-rule="evenodd" d="M307.062 239.534L323.544 223.232L324.074 223.805L307.592 240.106L307.062 239.534Z" fill="white"/>
<path d="M410.777 318.422L394.295 334.724L377.319 316.395L393.801 300.093L410.777 318.422Z" fill="#FF8700"/>
<path fill-rule="evenodd" clip-rule="evenodd" d="M391.114 331.28L407.596 314.978L408.127 315.551L391.645 331.852L391.114 331.28Z" fill="white"/>
<path fill-rule="evenodd" clip-rule="evenodd" d="M389.522 329.565L406.005 313.263L406.535 313.836L390.053 330.138L389.522 329.565Z" fill="white"/>
<path fill-rule="evenodd" clip-rule="evenodd" d="M387.929 327.85L404.411 311.548L404.941 312.121L388.459 328.423L387.929 327.85Z" fill="white"/>
<path fill-rule="evenodd" clip-rule="evenodd" d="M386.337 326.131L402.819 309.83L403.35 310.402L386.867 326.704L386.337 326.131Z" fill="white"/>
<path fill-rule="evenodd" clip-rule="evenodd" d="M384.745 324.412L401.227 308.111L401.758 308.684L385.276 324.985L384.745 324.412Z" fill="white"/>
<path fill-rule="evenodd" clip-rule="evenodd" d="M383.155 322.698L399.637 306.396L400.168 306.969L383.686 323.27L383.155 322.698Z" fill="white"/>
<path fill-rule="evenodd" clip-rule="evenodd" d="M381.564 320.975L398.046 304.673L398.576 305.246L382.094 321.548L381.564 320.975Z" fill="white"/>
<path fill-rule="evenodd" clip-rule="evenodd" d="M379.972 319.256L396.454 302.955L396.984 303.527L380.502 319.829L379.972 319.256Z" fill="white"/>
<path fill-rule="evenodd" clip-rule="evenodd" d="M378.378 317.537L394.86 301.236L395.391 301.809L378.908 318.11L378.378 317.537Z" fill="white"/>
<path d="M400.785 296.539C402.25 298.12 402.197 300.63 400.666 302.143L378.495 324.071C376.965 325.585 374.536 325.53 373.071 323.949L314.716 260.945C313.251 259.363 313.304 256.854 314.835 255.34L337.006 233.412C338.536 231.898 340.965 231.953 342.43 233.535L400.785 296.539Z" fill="#FF8700"/>
<path d="M328.363 248.019C329.596 245.72 332.398 244.889 334.622 246.163C336.846 247.436 337.649 250.332 336.416 252.631C335.183 254.93 332.381 255.761 330.157 254.487C327.934 253.213 327.13 250.317 328.363 248.019Z" fill="#B5C0C9"/>
<path fill-rule="evenodd" clip-rule="evenodd" d="M331.049 252.823C331.316 252.976 331.652 252.877 331.8 252.601L332.605 251.1L334.054 251.93C334.321 252.083 334.657 251.984 334.805 251.708C334.953 251.432 334.857 251.084 334.59 250.932L333.14 250.101L333.943 248.605C334.091 248.329 333.995 247.982 333.728 247.829C333.461 247.676 333.125 247.776 332.977 248.051L332.174 249.548L330.725 248.718C330.458 248.565 330.122 248.665 329.974 248.941C329.826 249.216 329.922 249.564 330.189 249.717L331.638 250.547L330.834 252.047C330.686 252.323 330.782 252.67 331.049 252.823Z" fill="white"/>
<path d="M378.645 303.101C379.877 300.802 382.68 299.971 384.903 301.245C387.127 302.519 387.93 305.414 386.697 307.713C385.464 310.012 382.662 310.843 380.439 309.569C378.215 308.295 377.412 305.399 378.645 303.101Z" fill="#B5C0C9"/>
<path fill-rule="evenodd" clip-rule="evenodd" d="M381.33 307.905C381.597 308.058 381.933 307.959 382.081 307.683L382.886 306.182L384.335 307.013C384.602 307.165 384.939 307.066 385.087 306.79C385.234 306.514 385.138 306.167 384.871 306.014L383.422 305.183L384.224 303.687C384.372 303.411 384.276 303.064 384.009 302.911C383.742 302.758 383.406 302.858 383.258 303.133L382.455 304.63L381.006 303.8C380.739 303.647 380.403 303.747 380.255 304.023C380.107 304.298 380.203 304.646 380.47 304.799L381.92 305.629L381.115 307.129C380.967 307.405 381.063 307.753 381.33 307.905Z" fill="white"/>
<path d="M418.057 316.863C419.521 318.444 419.468 320.954 417.938 322.467L395.766 344.395C394.235 345.908 391.807 345.853 390.342 344.272L386.023 339.608C384.558 338.026 384.611 335.517 386.142 334.003L408.314 312.076C409.844 310.562 412.273 310.618 413.738 312.199L418.057 316.863Z" fill="#FF8700"/>
<path fill-rule="evenodd" clip-rule="evenodd" d="M140.544 19.8649C140.544 8.8938 147.136 0 155.267 0H294.838C302.969 0 309.561 8.8938 309.561 19.8649V41.7867C309.944 41.4928 310.418 41.3189 310.932 41.3189H325.404C326.677 41.3189 327.709 42.3862 327.709 43.7027V104.092C327.709 105.408 326.677 106.476 325.404 106.476H310.932C310.418 106.476 309.944 106.302 309.561 106.008V127.135C309.561 138.106 302.969 147 294.838 147H155.267C147.136 147 140.544 138.106 140.544 127.135V106.21C140.227 106.38 139.867 106.476 139.486 106.476H125.014C123.741 106.476 122.709 105.408 122.709 104.092V43.7027C122.709 42.3862 123.741 41.3189 125.014 41.3189H139.486C139.867 41.3189 140.227 41.4147 140.544 41.5844V19.8649Z" fill="#FF8700"/>
<g filter="url(#filter1_i_883_7368)">
<path d="M200.707 53C200.707 61.8366 193.767 69 185.207 69C176.647 69 169.707 61.8366 169.707 53C169.707 44.1634 176.647 37 185.207 37C193.767 37 200.707 44.1634 200.707 53Z" fill="white"/>
</g>
<g filter="url(#filter2_i_883_7368)">
<path d="M192.707 55.5C192.707 59.0899 189.349 62 185.207 62C181.065 62 177.707 59.0899 177.707 55.5C177.707 51.9101 181.065 49 185.207 49C189.349 49 192.707 51.9101 192.707 55.5Z" fill="black"/>
</g>
<g filter="url(#filter3_i_883_7368)">
<path d="M280.707 53C280.707 61.8366 273.767 69 265.207 69C256.647 69 249.707 61.8366 249.707 53C249.707 44.1634 256.647 37 265.207 37C273.767 37 280.707 44.1634 280.707 53Z" fill="white"/>
</g>
<g filter="url(#filter4_i_883_7368)">
<path d="M272.707 55.5C272.707 59.0899 269.573 62 265.707 62C261.841 62 258.707 59.0899 258.707 55.5C258.707 51.9101 261.841 49 265.707 49C269.573 49 272.707 51.9101 272.707 55.5Z" fill="black"/>
</g>
<path d="M139.709 188.813C139.709 177.871 148.307 169 158.914 169H289.504C300.111 169 308.709 177.871 308.709 188.813V340.187C308.709 351.129 300.111 360 289.504 360H158.914C148.307 360 139.709 351.129 139.709 340.187V188.813Z" fill="#FF8700"/>
<path d="M209.707 145H239.707V171H209.707V145Z" fill="#FF8700"/>
<path fill-rule="evenodd" clip-rule="evenodd" d="M239.707 155H209.707V154H239.707V155Z" fill="white"/>
<path fill-rule="evenodd" clip-rule="evenodd" d="M239.707 157H209.707V156H239.707V157Z" fill="white"/>
<path fill-rule="evenodd" clip-rule="evenodd" d="M239.707 160H209.707V159H239.707V160Z" fill="white"/>
<path fill-rule="evenodd" clip-rule="evenodd" d="M239.707 162H209.707V161H239.707V162Z" fill="white"/>
<path fill-rule="evenodd" clip-rule="evenodd" d="M239.707 164H209.707V163H239.707V164Z" fill="white"/>
<path fill-rule="evenodd" clip-rule="evenodd" d="M239.707 166H209.707V165H239.707V166Z" fill="white"/>
<path fill-rule="evenodd" clip-rule="evenodd" d="M239.707 169H209.707V168H239.707V169Z" fill="white"/>
<path d="M295.709 128.5C295.709 131.538 293.694 134 291.209 134C288.724 134 286.709 131.538 286.709 128.5C286.709 125.462 288.724 123 291.209 123C293.694 123 295.709 125.462 295.709 128.5Z" fill="#B5C0C9"/>
<path fill-rule="evenodd" clip-rule="evenodd" d="M291.209 126C290.933 126 290.709 126.224 290.709 126.5V128.002H289.209C288.933 128.002 288.709 128.226 288.709 128.502C288.709 128.778 288.933 129.002 289.209 129.002H290.709V130.5C290.709 130.776 290.933 131 291.209 131C291.485 131 291.709 130.776 291.709 130.5V129.002H293.209C293.485 129.002 293.709 128.778 293.709 128.502C293.709 128.226 293.485 128.002 293.209 128.002H291.709V126.5C291.709 126.224 291.485 126 291.209 126Z" fill="white"/>
<g filter="url(#filter5_d_883_7368)">
<path d="M295.707 15C295.707 17.7614 293.692 20 291.207 20C288.722 20 286.707 17.7614 286.707 15C286.707 12.2386 288.722 10 291.207 10C293.692 10 295.707 12.2386 295.707 15Z" fill="#B5C0C9"/>
<path fill-rule="evenodd" clip-rule="evenodd" d="M291.207 12C290.931 12 290.707 12.2685 290.707 12.5998V14.4023H289.207C288.931 14.4023 288.707 14.671 288.707 15.0023C288.707 15.3337 288.931 15.6023 289.207 15.6023H290.707V17.4002C290.707 17.7315 290.931 18 291.207 18C291.483 18 291.707 17.7315 291.707 17.4002V15.6023H293.207C293.483 15.6023 293.707 15.3337 293.707 15.0023C293.707 14.671 293.483 14.4023 293.207 14.4023H291.707V12.5998C291.707 12.2685 291.483 12 291.207 12Z" fill="white"/>
</g>
<path d="M164.707 17C164.707 19.7614 162.692 22 160.207 22C157.722 22 155.707 19.7614 155.707 17C155.707 14.2386 157.722 12 160.207 12C162.692 12 164.707 14.2386 164.707 17Z" fill="#B5C0C9"/>
<path fill-rule="evenodd" clip-rule="evenodd" d="M160.707 14C160.376 14 160.107 14.2238 160.107 14.4998V16.002H158.307C157.976 16.002 157.707 16.2258 157.707 16.502C157.707 16.7781 157.976 17.002 158.307 17.002H160.107V18.5002C160.107 18.7762 160.376 19 160.707 19C161.039 19 161.307 18.7762 161.307 18.5002V17.002H163.107C163.438 17.002 163.707 16.7781 163.707 16.502C163.707 16.2258 163.438 16.002 163.107 16.002H161.307V14.4998C161.307 14.2238 161.039 14 160.707 14Z" fill="white"/>
<path d="M135.707 50.5C135.707 52.9853 133.692 55 131.207 55C128.722 55 126.707 52.9853 126.707 50.5C126.707 48.0147 128.722 46 131.207 46C133.692 46 135.707 48.0147 135.707 50.5Z" fill="#B5C0C9"/>
<path fill-rule="evenodd" clip-rule="evenodd" d="M131.207 48C130.931 48 130.707 48.2238 130.707 48.4998V50.002H129.207C128.931 50.002 128.707 50.2258 128.707 50.502C128.707 50.7781 128.931 51.002 129.207 51.002H130.707V52.5002C130.707 52.7762 130.931 53 131.207 53C131.483 53 131.707 52.7762 131.707 52.5002V51.002H133.207C133.483 51.002 133.707 50.7781 133.707 50.502C133.707 50.2258 133.483 50.002 133.207 50.002H131.707V48.4998C131.707 48.2238 131.483 48 131.207 48Z" fill="white"/>
<path d="M135.707 96.5C135.707 98.9853 133.692 101 131.207 101C128.722 101 126.707 98.9853 126.707 96.5C126.707 94.0147 128.722 92 131.207 92C133.692 92 135.707 94.0147 135.707 96.5Z" fill="#B5C0C9"/>
<path fill-rule="evenodd" clip-rule="evenodd" d="M131.207 93C130.931 93 130.707 93.2685 130.707 93.5998V95.4023H129.207C128.931 95.4023 128.707 95.671 128.707 96.0023C128.707 96.3337 128.931 96.6023 129.207 96.6023H130.707V98.4002C130.707 98.7315 130.931 99 131.207 99C131.483 99 131.707 98.7315 131.707 98.4002V96.6023H133.207C133.483 96.6023 133.707 96.3337 133.707 96.0023C133.707 95.671 133.483 95.4023 133.207 95.4023H131.707V93.5998C131.707 93.2685 131.483 93 131.207 93Z" fill="white"/>
<path d="M322.707 96.5C322.707 98.9853 320.692 101 318.207 101C315.722 101 313.707 98.9853 313.707 96.5C313.707 94.0147 315.722 92 318.207 92C320.692 92 322.707 94.0147 322.707 96.5Z" fill="#B5C0C9"/>
<path fill-rule="evenodd" clip-rule="evenodd" d="M318.707 93C318.376 93 318.107 93.2685 318.107 93.5998V95.4023H316.307C315.976 95.4023 315.707 95.671 315.707 96.0023C315.707 96.3337 315.976 96.6023 316.307 96.6023H318.107V98.4002C318.107 98.7315 318.376 99 318.707 99C319.039 99 319.307 98.7315 319.307 98.4002V96.6023H321.107C321.438 96.6023 321.707 96.3337 321.707 96.0023C321.707 95.671 321.438 95.4023 321.107 95.4023H319.307V93.5998C319.307 93.2685 319.039 93 318.707 93Z" fill="white"/>
<path d="M322.707 50.5C322.707 52.9853 320.692 55 318.207 55C315.722 55 313.707 52.9853 313.707 50.5C313.707 48.0147 315.722 46 318.207 46C320.692 46 322.707 48.0147 322.707 50.5Z" fill="#B5C0C9"/>
<path fill-rule="evenodd" clip-rule="evenodd" d="M318.707 48C318.376 48 318.107 48.2238 318.107 48.4998V50.002H316.307C315.976 50.002 315.707 50.2258 315.707 50.502C315.707 50.7781 315.976 51.002 316.307 51.002H318.107V52.5002C318.107 52.7762 318.376 53 318.707 53C319.039 53 319.307 52.7762 319.307 52.5002V51.002H321.107C321.438 51.002 321.707 50.7781 321.707 50.502C321.707 50.2258 321.438 50.002 321.107 50.002H319.307V48.4998C319.307 48.2238 319.039 48 318.707 48Z" fill="white"/>
<path d="M164.707 128.5C164.707 131.538 162.692 134 160.207 134C157.722 134 155.707 131.538 155.707 128.5C155.707 125.462 157.722 123 160.207 123C162.692 123 164.707 125.462 164.707 128.5Z" fill="#B5C0C9"/>
<path fill-rule="evenodd" clip-rule="evenodd" d="M160.707 126C160.376 126 160.107 126.224 160.107 126.5V128.002H158.307C157.976 128.002 157.707 128.226 157.707 128.502C157.707 128.778 157.976 129.002 158.307 129.002H160.107V130.5C160.107 130.776 160.376 131 160.707 131C161.039 131 161.307 130.776 161.307 130.5V129.002H163.107C163.438 129.002 163.707 128.778 163.707 128.502C163.707 128.226 163.438 128.002 163.107 128.002H161.307V126.5C161.307 126.224 161.039 126 160.707 126Z" fill="white"/>
<path d="M164.707 190.5C164.707 192.985 162.692 195 160.207 195C157.722 195 155.707 192.985 155.707 190.5C155.707 188.015 157.722 186 160.207 186C162.692 186 164.707 188.015 164.707 190.5Z" fill="#B5C0C9"/>
<path fill-rule="evenodd" clip-rule="evenodd" d="M160.707 188C160.376 188 160.107 188.269 160.107 188.6V190.402H158.307C157.976 190.402 157.707 190.671 157.707 191.002C157.707 191.334 157.976 191.602 158.307 191.602H160.107V193.4C160.107 193.731 160.376 194 160.707 194C161.039 194 161.307 193.731 161.307 193.4V191.602H163.107C163.438 191.602 163.707 191.334 163.707 191.002C163.707 190.671 163.438 190.402 163.107 190.402H161.307V188.6C161.307 188.269 161.039 188 160.707 188Z" fill="white"/>
<path d="M164.707 338.5C164.707 340.985 162.692 343 160.207 343C157.722 343 155.707 340.985 155.707 338.5C155.707 336.015 157.722 334 160.207 334C162.692 334 164.707 336.015 164.707 338.5Z" fill="#B5C0C9"/>
<path fill-rule="evenodd" clip-rule="evenodd" d="M160.707 335C160.376 335 160.107 335.313 160.107 335.7V337.803H158.307C157.976 337.803 157.707 338.116 157.707 338.503C157.707 338.889 157.976 339.203 158.307 339.203H160.107V341.3C160.107 341.687 160.376 342 160.707 342C161.039 342 161.307 341.687 161.307 341.3V339.203H163.107C163.438 339.203 163.707 338.889 163.707 338.503C163.707 338.116 163.438 337.803 163.107 337.803H161.307V335.7C161.307 335.313 161.039 335 160.707 335Z" fill="white"/>
<path d="M295.707 190.5C295.707 192.985 293.692 195 291.207 195C288.722 195 286.707 192.985 286.707 190.5C286.707 188.015 288.722 186 291.207 186C293.692 186 295.707 188.015 295.707 190.5Z" fill="#B5C0C9"/>
<path fill-rule="evenodd" clip-rule="evenodd" d="M291.207 188C290.931 188 290.707 188.269 290.707 188.6V190.402H289.207C288.931 190.402 288.707 190.671 288.707 191.002C288.707 191.334 288.931 191.602 289.207 191.602H290.707V193.4C290.707 193.731 290.931 194 291.207 194C291.483 194 291.707 193.731 291.707 193.4V191.602H293.207C293.483 191.602 293.707 191.334 293.707 191.002C293.707 190.671 293.483 190.402 293.207 190.402H291.707V188.6C291.707 188.269 291.483 188 291.207 188Z" fill="white"/>
<path d="M295.707 338.5C295.707 340.985 293.692 343 291.207 343C288.722 343 286.707 340.985 286.707 338.5C286.707 336.015 288.722 334 291.207 334C293.692 334 295.707 336.015 295.707 338.5Z" fill="#B5C0C9"/>
<path fill-rule="evenodd" clip-rule="evenodd" d="M291.207 335C290.931 335 290.707 335.313 290.707 335.7V337.803H289.207C288.931 337.803 288.707 338.116 288.707 338.503C288.707 338.889 288.931 339.203 289.207 339.203H290.707V341.3C290.707 341.687 290.931 342 291.207 342C291.483 342 291.707 341.687 291.707 341.3V339.203H293.207C293.483 339.203 293.707 338.889 293.707 338.503C293.707 338.116 293.483 337.803 293.207 337.803H291.707V335.7C291.707 335.313 291.483 335 291.207 335Z" fill="white"/>
<g filter="url(#filter6_d_883_7368)">
<path d="M187.709 98.4324C187.709 97.089 188.73 96 189.989 96H261.429C262.688 96 263.709 97.089 263.709 98.4324V123.568C263.709 124.911 262.688 126 261.429 126H189.989C188.73 126 187.709 124.911 187.709 123.568V98.4324Z" fill="#2D2D2D"/>
</g>
<path fill-rule="evenodd" clip-rule="evenodd" d="M191.609 100.054V121.946H261.809V100.054H191.609ZM190.049 96C188.757 96 187.709 97.089 187.709 98.4324V123.568C187.709 124.911 188.757 126 190.049 126H263.369C264.661 126 265.709 124.911 265.709 123.568V98.4324C265.709 97.089 264.661 96 263.369 96H190.049Z" fill="black"/>
<path d="M236.707 116.504C236.707 116.363 236.795 116.245 236.971 116.148C237.147 116.049 237.393 116 237.707 116C238.018 116 238.261 116.048 238.438 116.145C238.617 116.242 238.707 116.362 238.707 116.504C238.707 116.647 238.615 116.765 238.432 116.86C238.253 116.953 238.011 117 237.707 117C237.4 117 237.156 116.953 236.976 116.858C236.797 116.763 236.707 116.645 236.707 116.504Z" fill="#00B2FF"/>
<path d="M232.707 116.504C232.707 116.363 232.751 116.245 232.839 116.148C232.927 116.049 233.05 116 233.207 116C233.362 116 233.484 116.048 233.572 116.145C233.662 116.242 233.707 116.362 233.707 116.504C233.707 116.647 233.661 116.765 233.57 116.86C233.48 116.953 233.359 117 233.207 117C233.053 117 232.932 116.953 232.842 116.858C232.752 116.763 232.707 116.645 232.707 116.504Z" fill="#00B2FF"/>
<path d="M228.707 116.504C228.707 116.363 228.751 116.245 228.839 116.148C228.927 116.049 229.05 116 229.207 116C229.362 116 229.484 116.048 229.572 116.145C229.662 116.242 229.707 116.362 229.707 116.504C229.707 116.647 229.661 116.765 229.57 116.86C229.48 116.953 229.359 117 229.207 117C229.053 117 228.932 116.953 228.842 116.858C228.752 116.763 228.707 116.645 228.707 116.504Z" fill="#00B2FF"/>
<path d="M224.888 117C224.56 117 224.262 116.951 223.994 116.854C223.727 116.756 223.497 116.623 223.305 116.455C223.114 116.288 222.966 116.092 222.861 115.866C222.758 115.638 222.707 115.395 222.707 115.135V114.993C222.707 114.698 222.758 114.43 222.861 114.187C222.963 113.942 223.106 113.732 223.29 113.556C223.473 113.38 223.691 113.244 223.943 113.146C224.195 113.049 224.469 113 224.766 113C225.073 113 225.346 113.046 225.585 113.139C225.826 113.229 226.031 113.358 226.199 113.524C226.365 113.69 226.49 113.891 226.577 114.127C226.664 114.359 226.707 114.617 226.707 114.9V115.321H223.817V115.332C223.854 115.486 223.901 115.611 223.959 115.706C224.017 115.799 224.094 115.883 224.191 115.959C224.291 116.037 224.405 116.098 224.534 116.141C224.662 116.184 224.803 116.205 224.955 116.205C225.17 116.205 225.379 116.168 225.581 116.094C225.783 116.021 225.947 115.91 226.073 115.763L226.62 116.298C226.481 116.476 226.261 116.638 225.959 116.783C225.657 116.928 225.3 117 224.888 117ZM224.758 113.802C224.635 113.802 224.522 113.822 224.42 113.863C224.317 113.901 224.228 113.957 224.152 114.03C224.073 114.104 224.008 114.192 223.955 114.294C223.903 114.396 223.863 114.51 223.837 114.636H225.632V114.558C225.632 114.453 225.611 114.355 225.569 114.262C225.527 114.169 225.469 114.089 225.396 114.02C225.323 113.953 225.232 113.901 225.124 113.863C225.019 113.822 224.897 113.802 224.758 113.802Z" fill="#00B2FF"/>
<path d="M219.601 113.073L219.631 113.548C219.709 113.379 219.815 113.246 219.949 113.149C220.087 113.05 220.252 113 220.447 113C220.542 113 220.627 113.011 220.701 113.033C220.776 113.054 220.841 113.088 220.896 113.134C220.938 113.168 220.975 113.209 221.005 113.258C221.037 113.304 221.064 113.357 221.087 113.417C221.122 113.359 221.16 113.307 221.203 113.261C221.248 113.213 221.296 113.172 221.349 113.138C221.414 113.094 221.487 113.06 221.57 113.036C221.652 113.012 221.742 113 221.839 113C221.961 113 222.075 113.022 222.179 113.065C222.287 113.109 222.38 113.178 222.46 113.272C222.537 113.369 222.597 113.494 222.64 113.646C222.685 113.796 222.707 113.98 222.707 114.198V117H221.76V114.194C221.76 114.119 221.752 114.057 221.734 114.009C221.719 113.961 221.698 113.922 221.671 113.893C221.643 113.866 221.611 113.848 221.573 113.838C221.538 113.826 221.502 113.82 221.465 113.82C221.425 113.82 221.389 113.825 221.356 113.835C221.326 113.845 221.298 113.858 221.27 113.875C221.248 113.892 221.228 113.911 221.21 113.933C221.193 113.952 221.178 113.975 221.165 114.002C221.165 114.007 221.165 114.018 221.165 114.034C221.165 114.051 221.165 114.074 221.165 114.103V117H220.249V114.191C220.249 114.116 220.241 114.054 220.226 114.005C220.211 113.957 220.191 113.92 220.166 113.893C220.139 113.866 220.108 113.848 220.073 113.838C220.038 113.826 220 113.82 219.961 113.82C219.916 113.82 219.876 113.828 219.841 113.842C219.806 113.857 219.775 113.877 219.747 113.904C219.727 113.923 219.71 113.946 219.695 113.973C219.68 113.999 219.666 114.028 219.654 114.06V117H218.707V113.073H219.601Z" fill="#00B2FF"/>
<path d="M213.707 114.963C213.707 114.682 213.751 114.424 213.84 114.186C213.929 113.946 214.06 113.738 214.232 113.563C214.402 113.387 214.609 113.249 214.855 113.15C215.103 113.05 215.386 113 215.705 113C216.024 113 216.307 113.05 216.555 113.15C216.803 113.249 217.014 113.387 217.186 113.563C217.356 113.738 217.485 113.946 217.574 114.186C217.663 114.424 217.707 114.682 217.707 114.963V115.037C217.707 115.32 217.663 115.581 217.574 115.821C217.485 116.058 217.356 116.265 217.186 116.441C217.016 116.617 216.807 116.754 216.559 116.854C216.311 116.951 216.029 117 215.713 117C215.394 117 215.11 116.951 214.859 116.854C214.611 116.754 214.402 116.617 214.232 116.441C214.06 116.265 213.929 116.058 213.84 115.821C213.751 115.581 213.707 115.32 213.707 115.037V114.963ZM214.796 115.037C214.796 115.199 214.813 115.351 214.847 115.493C214.881 115.633 214.935 115.756 215.008 115.86C215.081 115.967 215.175 116.051 215.29 116.113C215.407 116.175 215.548 116.206 215.713 116.206C215.872 116.206 216.009 116.175 216.124 116.113C216.239 116.051 216.333 115.967 216.406 115.86C216.477 115.756 216.529 115.633 216.563 115.493C216.597 115.351 216.614 115.199 216.614 115.037V114.963C216.614 114.806 216.597 114.657 216.563 114.517C216.529 114.377 216.477 114.254 216.406 114.147C216.333 114.04 216.239 113.956 216.124 113.894C216.009 113.832 215.87 113.801 215.705 113.801C215.543 113.801 215.405 113.832 215.29 113.894C215.175 113.956 215.081 114.04 215.008 114.147C214.935 114.254 214.881 114.377 214.847 114.517C214.813 114.657 214.796 114.806 214.796 114.963V115.037Z" fill="#00B2FF"/>
<path d="M211.792 116.206C211.905 116.206 212.013 116.191 212.115 116.163C212.217 116.134 212.307 116.094 212.384 116.042C212.462 115.99 212.521 115.927 212.563 115.853C212.607 115.779 212.626 115.698 212.621 115.607H213.707C213.712 115.807 213.664 115.992 213.562 116.163C213.462 116.334 213.325 116.481 213.151 116.605C212.977 116.728 212.774 116.825 212.542 116.897C212.313 116.966 212.069 117 211.812 117C211.464 117 211.159 116.95 210.897 116.85C210.634 116.748 210.416 116.609 210.242 116.434C210.065 116.258 209.931 116.053 209.84 115.817C209.751 115.58 209.707 115.326 209.707 115.055V114.948C209.707 114.678 209.751 114.425 209.84 114.19C209.928 113.952 210.061 113.746 210.238 113.57C210.414 113.394 210.633 113.255 210.892 113.153C211.155 113.051 211.459 113 211.804 113C212.081 113 212.336 113.036 212.571 113.107C212.806 113.178 213.009 113.278 213.18 113.406C213.349 113.537 213.48 113.695 213.574 113.88C213.668 114.063 213.712 114.268 213.707 114.496H212.621C212.626 114.401 212.61 114.311 212.571 114.225C212.532 114.14 212.476 114.066 212.401 114.004C212.326 113.943 212.237 113.894 212.132 113.858C212.027 113.82 211.912 113.801 211.788 113.801C211.605 113.801 211.455 113.833 211.336 113.898C211.217 113.962 211.123 114.047 211.054 114.154C210.982 114.261 210.931 114.383 210.901 114.521C210.873 114.659 210.859 114.801 210.859 114.948V115.055C210.859 115.205 210.873 115.35 210.901 115.49C210.928 115.627 210.978 115.749 211.05 115.853C211.119 115.96 211.213 116.045 211.332 116.11C211.453 116.174 211.607 116.206 211.792 116.206Z" fill="#00B2FF"/>
<path d="M205.707 111H208.352V116.117H209.707V117H205.707V116.117H207.123V111.887H205.707V111Z" fill="#00B2FF"/>
<path d="M203.343 117C203.097 117 202.873 116.951 202.673 116.854C202.472 116.756 202.3 116.623 202.156 116.455C202.012 116.288 201.901 116.092 201.822 115.866C201.745 115.638 201.707 115.395 201.707 115.135V114.993C201.707 114.698 201.745 114.43 201.822 114.187C201.899 113.942 202.006 113.732 202.144 113.556C202.282 113.38 202.445 113.244 202.634 113.146C202.823 113.049 203.029 113 203.251 113C203.482 113 203.686 113.046 203.865 113.139C204.047 113.229 204.2 113.358 204.326 113.524C204.45 113.69 204.545 113.891 204.61 114.127C204.675 114.359 204.707 114.617 204.707 114.9V115.321H202.54V115.332C202.567 115.486 202.603 115.611 202.646 115.706C202.689 115.799 202.747 115.883 202.82 115.959C202.895 116.037 202.981 116.098 203.077 116.141C203.174 116.184 203.279 116.205 203.393 116.205C203.554 116.205 203.711 116.168 203.863 116.094C204.014 116.021 204.137 115.91 204.232 115.763L204.642 116.298C204.538 116.476 204.372 116.638 204.146 116.783C203.92 116.928 203.652 117 203.343 117ZM203.245 113.802C203.153 113.802 203.068 113.822 202.991 113.863C202.915 113.901 202.848 113.957 202.791 114.03C202.732 114.104 202.682 114.192 202.643 114.294C202.604 114.396 202.574 114.51 202.554 114.636H203.901V114.558C203.901 114.453 203.885 114.355 203.854 114.262C203.822 114.169 203.779 114.089 203.724 114.02C203.669 113.953 203.601 113.901 203.52 113.863C203.441 113.822 203.35 113.802 203.245 113.802Z" fill="#00B2FF"/>
<path d="M197.384 117L196.707 112H197.577L197.906 114.795L197.93 114.991L197.96 114.785L198.35 112H199.03L199.444 114.806L199.474 115.012L199.498 114.802L199.833 112H200.707L200.023 117H199.163L198.732 114.301L198.695 114.047L198.658 114.301L198.245 117H197.384Z" fill="#00B2FF"/>
<path d="M256.707 103.377C256.707 103.325 256.717 103.277 256.737 103.231C256.758 103.186 256.788 103.146 256.829 103.111C256.868 103.077 256.918 103.05 256.979 103.031C257.039 103.01 257.109 103 257.189 103C257.27 103 257.341 103.01 257.402 103.031C257.462 103.05 257.512 103.077 257.553 103.111C257.592 103.146 257.622 103.186 257.642 103.231C257.663 103.277 257.673 103.325 257.673 103.377V103.48C257.673 103.53 257.663 103.578 257.642 103.624C257.622 103.668 257.592 103.708 257.553 103.741C257.512 103.776 257.462 103.804 257.402 103.824C257.342 103.844 257.273 103.854 257.193 103.854C257.113 103.854 257.042 103.844 256.98 103.824C256.92 103.804 256.869 103.776 256.829 103.741C256.789 103.708 256.759 103.668 256.738 103.624C256.717 103.578 256.707 103.53 256.707 103.48V103.377ZM256.998 103.48C256.998 103.503 257.001 103.525 257.006 103.548C257.013 103.569 257.025 103.588 257.041 103.605C257.056 103.622 257.076 103.635 257.1 103.645C257.126 103.655 257.157 103.66 257.193 103.66C257.227 103.66 257.257 103.655 257.281 103.645C257.306 103.635 257.326 103.622 257.341 103.605C257.355 103.588 257.365 103.569 257.372 103.548C257.379 103.525 257.382 103.503 257.382 103.48V103.377C257.382 103.354 257.379 103.331 257.372 103.309C257.365 103.286 257.355 103.266 257.341 103.248C257.324 103.232 257.304 103.22 257.28 103.21C257.255 103.199 257.225 103.194 257.189 103.194C257.153 103.194 257.123 103.199 257.099 103.21C257.075 103.22 257.056 103.232 257.041 103.248C257.026 103.266 257.015 103.286 257.008 103.309C257.001 103.331 256.998 103.354 256.998 103.377V103.48ZM257.739 104.523C257.739 104.472 257.75 104.424 257.771 104.379C257.791 104.333 257.822 104.293 257.863 104.259C257.903 104.224 257.954 104.197 258.014 104.177C258.075 104.157 258.144 104.148 258.223 104.148C258.304 104.148 258.375 104.157 258.435 104.177C258.496 104.197 258.546 104.224 258.587 104.259C258.626 104.293 258.656 104.333 258.676 104.379C258.697 104.424 258.707 104.472 258.707 104.523V104.627C258.707 104.678 258.697 104.726 258.677 104.772C258.658 104.817 258.628 104.857 258.587 104.89C258.546 104.924 258.496 104.951 258.435 104.971C258.376 104.99 258.307 105 258.227 105C258.147 105 258.076 104.99 258.014 104.971C257.954 104.951 257.903 104.924 257.863 104.89C257.822 104.857 257.791 104.817 257.771 104.772C257.75 104.726 257.739 104.678 257.739 104.627V104.523ZM258.03 104.627C258.03 104.65 258.034 104.673 258.042 104.695C258.05 104.717 258.062 104.736 258.079 104.753C258.094 104.77 258.113 104.784 258.138 104.794C258.162 104.804 258.192 104.809 258.227 104.809C258.265 104.809 258.296 104.804 258.321 104.794C258.345 104.784 258.364 104.77 258.378 104.753C258.393 104.736 258.403 104.717 258.408 104.695C258.413 104.674 258.416 104.651 258.416 104.627V104.523C258.416 104.499 258.413 104.476 258.406 104.455C258.399 104.433 258.388 104.413 258.375 104.396C258.358 104.38 258.337 104.367 258.312 104.357C258.288 104.347 258.258 104.341 258.223 104.341C258.187 104.341 258.157 104.346 258.133 104.356C258.108 104.366 258.089 104.379 258.073 104.396C258.058 104.413 258.047 104.433 258.04 104.455C258.033 104.476 258.03 104.499 258.03 104.523V104.627ZM257.349 104.714L257.13 104.629L258.112 103.251L258.329 103.335L257.349 104.714Z" fill="#00B2FF"/>
<path d="M256.707 104.231C256.707 104.356 256.684 104.466 256.637 104.562C256.592 104.657 256.527 104.737 256.441 104.801C256.356 104.867 256.252 104.917 256.128 104.951C256.005 104.984 255.866 105 255.709 105C255.554 105 255.415 104.984 255.291 104.951C255.167 104.917 255.062 104.867 254.976 104.801C254.888 104.737 254.821 104.657 254.775 104.562C254.73 104.466 254.707 104.356 254.707 104.231V103.77C254.707 103.646 254.73 103.536 254.775 103.441C254.821 103.344 254.887 103.263 254.973 103.198C255.059 103.133 255.164 103.084 255.286 103.051C255.41 103.017 255.55 103 255.705 103C255.861 103 256.001 103.017 256.124 103.051C256.248 103.084 256.353 103.133 256.441 103.198C256.525 103.263 256.591 103.344 256.637 103.441C256.684 103.536 256.707 103.646 256.707 103.77V104.231ZM255.214 104.117L256.193 103.649C256.188 103.579 256.172 103.519 256.147 103.469C256.123 103.418 256.088 103.377 256.043 103.344C256.004 103.316 255.955 103.295 255.897 103.28C255.841 103.266 255.777 103.259 255.705 103.259C255.627 103.259 255.559 103.267 255.5 103.284C255.441 103.301 255.391 103.326 255.352 103.359C255.305 103.397 255.271 103.445 255.248 103.505C255.226 103.563 255.214 103.633 255.214 103.713V103.975C255.214 104.008 255.214 104.034 255.214 104.052C255.214 104.07 255.214 104.092 255.214 104.117ZM256.198 104.284V104.039C256.198 104.016 256.198 103.993 256.198 103.969C256.198 103.945 256.198 103.92 256.198 103.895L255.219 104.36C255.226 104.422 255.241 104.476 255.263 104.523C255.287 104.571 255.319 104.61 255.358 104.641C255.398 104.675 255.446 104.7 255.504 104.717C255.563 104.734 255.632 104.742 255.709 104.742C255.785 104.742 255.852 104.734 255.91 104.718C255.968 104.701 256.017 104.677 256.058 104.645C256.104 104.607 256.139 104.559 256.162 104.498C256.186 104.437 256.198 104.366 256.198 104.284Z" fill="#00B2FF"/>
<path d="M254.707 104.231C254.707 104.356 254.684 104.466 254.637 104.562C254.592 104.657 254.527 104.737 254.441 104.801C254.356 104.867 254.252 104.917 254.128 104.951C254.005 104.984 253.866 105 253.709 105C253.554 105 253.415 104.984 253.291 104.951C253.167 104.917 253.062 104.867 252.976 104.801C252.888 104.737 252.821 104.657 252.775 104.562C252.73 104.466 252.707 104.356 252.707 104.231V103.77C252.707 103.646 252.73 103.536 252.775 103.441C252.821 103.344 252.887 103.263 252.973 103.198C253.059 103.133 253.164 103.084 253.286 103.051C253.41 103.017 253.55 103 253.705 103C253.861 103 254.001 103.017 254.124 103.051C254.248 103.084 254.353 103.133 254.441 103.198C254.525 103.263 254.591 103.344 254.637 103.441C254.684 103.536 254.707 103.646 254.707 103.77V104.231ZM253.214 104.117L254.193 103.649C254.188 103.579 254.172 103.519 254.147 103.469C254.123 103.418 254.088 103.377 254.043 103.344C254.004 103.316 253.955 103.295 253.897 103.28C253.841 103.266 253.777 103.259 253.705 103.259C253.627 103.259 253.559 103.267 253.5 103.284C253.441 103.301 253.391 103.326 253.352 103.359C253.305 103.397 253.271 103.445 253.248 103.505C253.226 103.563 253.214 103.633 253.214 103.713V103.975C253.214 104.008 253.214 104.034 253.214 104.052C253.214 104.07 253.214 104.092 253.214 104.117ZM254.198 104.284V104.039C254.198 104.016 254.198 103.993 254.198 103.969C254.198 103.945 254.198 103.92 254.198 103.895L253.219 104.36C253.226 104.422 253.241 104.476 253.263 104.523C253.287 104.571 253.319 104.61 253.358 104.641C253.398 104.675 253.446 104.7 253.504 104.717C253.563 104.734 253.632 104.742 253.709 104.742C253.785 104.742 253.852 104.734 253.91 104.718C253.968 104.701 254.017 104.677 254.058 104.645C254.104 104.607 254.139 104.559 254.162 104.498C254.186 104.437 254.198 104.366 254.198 104.284Z" fill="#00B2FF"/>
<path d="M251.707 105H251.315V103.407L250.707 103.595V103.305L251.683 103H251.707V105Z" fill="#00B2FF"/>
<g filter="url(#filter7_d_883_7368)">
<path d="M224.209 203L227.52 226.383L245.709 241L224.209 232.235L202.709 241L220.898 226.383L224.209 203Z" fill="white"/>
</g>
<path d="M239.934 256.932C239.934 256.863 239.921 256.798 239.895 256.737C239.871 256.676 239.829 256.619 239.769 256.566C239.708 256.514 239.628 256.467 239.529 256.424C239.433 256.379 239.312 256.338 239.167 256.301C238.941 256.242 238.743 256.171 238.572 256.087C238.403 256.003 238.264 255.911 238.156 255.811C238.048 255.711 237.967 255.601 237.911 255.48C237.857 255.358 237.83 255.226 237.83 255.084C237.83 254.92 237.866 254.771 237.939 254.637C238.011 254.503 238.112 254.389 238.24 254.294C238.368 254.2 238.52 254.128 238.695 254.078C238.87 254.026 239.06 254 239.264 254C239.476 254 239.67 254.029 239.845 254.088C240.021 254.147 240.173 254.229 240.3 254.334C240.426 254.441 240.525 254.568 240.595 254.714C240.666 254.861 240.701 255.021 240.701 255.196H239.937C239.933 255.109 239.916 255.028 239.887 254.955C239.859 254.882 239.817 254.819 239.761 254.765C239.703 254.713 239.632 254.673 239.546 254.645C239.462 254.614 239.364 254.599 239.25 254.599C239.146 254.599 239.053 254.612 238.971 254.637C238.891 254.66 238.823 254.693 238.767 254.736C238.712 254.78 238.669 254.833 238.639 254.894C238.611 254.953 238.597 255.017 238.597 255.086C238.597 255.159 238.616 255.225 238.653 255.284C238.692 255.343 238.748 255.396 238.821 255.442C238.893 255.49 238.981 255.534 239.083 255.573C239.187 255.612 239.304 255.649 239.434 255.683C239.574 255.72 239.707 255.766 239.834 255.819C239.96 255.873 240.076 255.934 240.182 256.004C240.342 256.118 240.47 256.251 240.565 256.403C240.66 256.554 240.707 256.729 240.707 256.927C240.707 257.098 240.671 257.251 240.598 257.385C240.527 257.517 240.429 257.628 240.302 257.719C240.176 257.812 240.025 257.882 239.85 257.93C239.675 257.977 239.485 258 239.278 258C239.075 258 238.874 257.971 238.675 257.914C238.478 257.856 238.306 257.77 238.159 257.658C238.02 257.547 237.909 257.417 237.827 257.267C237.747 257.117 237.707 256.941 237.707 256.74H238.477C238.481 256.858 238.502 256.958 238.541 257.042C238.581 257.126 238.635 257.195 238.706 257.248C238.775 257.302 238.858 257.341 238.954 257.366C239.053 257.391 239.161 257.403 239.278 257.403C239.382 257.403 239.474 257.392 239.554 257.369C239.636 257.345 239.705 257.313 239.761 257.272C239.817 257.231 239.86 257.182 239.889 257.125C239.919 257.066 239.934 257.002 239.934 256.932Z" fill="white"/>
<path d="M237.704 256.726C237.691 256.922 237.646 257.098 237.569 257.255C237.494 257.412 237.392 257.545 237.264 257.656C237.137 257.766 236.984 257.851 236.808 257.912C236.631 257.971 236.435 258 236.221 258C236.052 258 235.895 257.98 235.75 257.939C235.607 257.896 235.479 257.835 235.364 257.757C235.259 257.684 235.165 257.596 235.082 257.493C235.001 257.389 234.933 257.275 234.876 257.151C234.822 257.026 234.779 256.889 234.749 256.74C234.721 256.59 234.707 256.432 234.707 256.264V255.741C234.707 255.584 234.72 255.436 234.747 255.295C234.773 255.153 234.812 255.021 234.865 254.9C234.925 254.752 235.004 254.62 235.102 254.505C235.2 254.389 235.31 254.291 235.434 254.211C235.545 254.143 235.667 254.092 235.798 254.056C235.932 254.019 236.075 254 236.227 254C236.452 254 236.653 254.03 236.827 254.091C237.004 254.151 237.154 254.238 237.278 254.35C237.403 254.462 237.5 254.599 237.572 254.761C237.643 254.923 237.688 255.105 237.707 255.308H236.918C236.91 255.193 236.891 255.091 236.861 255.004C236.833 254.917 236.792 254.844 236.737 254.785C236.681 254.728 236.61 254.685 236.526 254.657C236.443 254.627 236.343 254.611 236.227 254.611C236.165 254.611 236.106 254.618 236.052 254.63C235.999 254.643 235.95 254.661 235.905 254.686C235.828 254.729 235.762 254.79 235.708 254.87C235.655 254.949 235.613 255.04 235.581 255.146C235.557 255.227 235.539 255.318 235.528 255.418C235.516 255.516 235.511 255.622 235.511 255.736V256.264C235.511 256.419 235.519 256.558 235.536 256.681C235.555 256.802 235.583 256.908 235.621 256.999C235.647 257.061 235.678 257.116 235.714 257.164C235.751 257.212 235.793 257.252 235.84 257.284C235.891 257.32 235.948 257.347 236.01 257.364C236.074 257.381 236.144 257.389 236.221 257.389C236.325 257.389 236.418 257.376 236.5 257.351C236.583 257.326 236.653 257.287 236.712 257.234C236.77 257.18 236.816 257.112 236.85 257.028C236.884 256.944 236.904 256.844 236.912 256.726H237.704Z" fill="white"/>
<path d="M232.707 254H234.707V254.624H234.032V257.379H234.707V258H232.707V257.379H233.365V254.624H232.707V254Z" fill="white"/>
<path d="M231.707 254.629H230.56V258H229.839V254.629H228.707V254H231.707V254.629Z" fill="white"/>
<path d="M228.707 256.286C228.707 256.454 228.691 256.613 228.659 256.765C228.627 256.914 228.581 257.053 228.521 257.182C228.458 257.31 228.379 257.428 228.285 257.535C228.192 257.642 228.085 257.731 227.965 257.802C227.856 257.865 227.736 257.913 227.605 257.947C227.476 257.982 227.336 258 227.186 258C227.027 258 226.879 257.98 226.745 257.941C226.61 257.902 226.487 257.847 226.376 257.775C226.267 257.701 226.17 257.611 226.084 257.505C225.998 257.398 225.925 257.278 225.867 257.144C225.815 257.021 225.775 256.888 225.746 256.743C225.72 256.599 225.707 256.447 225.707 256.286V255.719C225.707 255.548 225.722 255.386 225.752 255.233C225.784 255.079 225.83 254.938 225.89 254.807C225.948 254.684 226.018 254.573 226.101 254.473C226.185 254.373 226.282 254.288 226.39 254.217C226.497 254.147 226.617 254.094 226.75 254.056C226.883 254.019 227.028 254 227.183 254C227.341 254 227.488 254.02 227.625 254.059C227.763 254.096 227.888 254.151 227.999 254.222C228.109 254.29 228.206 254.372 228.288 254.468C228.372 254.564 228.445 254.67 228.505 254.786C228.57 254.918 228.62 255.062 228.654 255.219C228.689 255.376 228.707 255.543 228.707 255.719V256.286ZM227.906 255.714C227.906 255.614 227.9 255.52 227.889 255.43C227.879 255.34 227.864 255.256 227.841 255.179C227.813 255.083 227.775 254.997 227.729 254.922C227.682 254.846 227.626 254.783 227.563 254.735C227.512 254.7 227.455 254.672 227.391 254.652C227.329 254.633 227.26 254.623 227.183 254.623C227.11 254.623 227.043 254.632 226.984 254.65C226.925 254.668 226.873 254.693 226.826 254.727C226.762 254.777 226.708 254.84 226.663 254.914C226.62 254.989 226.586 255.077 226.562 255.176C226.543 255.253 226.529 255.337 226.52 255.428C226.512 255.519 226.508 255.614 226.508 255.714V256.286C226.508 256.381 226.512 256.471 226.52 256.559C226.527 256.646 226.54 256.727 226.559 256.802C226.58 256.897 226.61 256.983 226.649 257.061C226.69 257.138 226.738 257.201 226.792 257.249C226.843 257.291 226.9 257.324 226.964 257.348C227.029 257.371 227.103 257.382 227.186 257.382C227.265 257.382 227.337 257.372 227.402 257.35C227.468 257.329 227.526 257.298 227.577 257.257C227.64 257.207 227.694 257.144 227.737 257.07C227.782 256.993 227.818 256.906 227.844 256.81C227.864 256.735 227.879 256.653 227.889 256.564C227.9 256.475 227.906 256.382 227.906 256.286V255.714Z" fill="white"/>
<path d="M222.707 258V254H224.106C224.332 254 224.538 254.022 224.723 254.066C224.91 254.11 225.069 254.177 225.201 254.266C225.332 254.356 225.433 254.47 225.504 254.607C225.576 254.745 225.613 254.907 225.613 255.093C225.611 255.214 225.588 255.329 225.544 255.437C225.502 255.543 225.439 255.636 225.355 255.717C225.31 255.761 225.257 255.801 225.198 255.838C225.141 255.875 225.077 255.906 225.006 255.931V255.934C225.144 255.971 225.252 256.017 225.332 256.074C225.414 256.131 225.483 256.197 225.538 256.272C225.595 256.353 225.637 256.44 225.664 256.536C225.693 256.629 225.707 256.726 225.707 256.827C225.707 257.019 225.673 257.189 225.604 257.335C225.535 257.482 225.437 257.604 225.31 257.703C225.182 257.802 225.026 257.876 224.843 257.926C224.66 257.975 224.454 258 224.226 258H222.707ZM223.514 256.236V257.376H224.228C224.333 257.376 224.427 257.364 224.509 257.338C224.593 257.312 224.662 257.277 224.718 257.234C224.779 257.184 224.824 257.125 224.855 257.055C224.887 256.985 224.903 256.908 224.903 256.821C224.903 256.732 224.891 256.651 224.866 256.58C224.843 256.508 224.806 256.448 224.755 256.398C224.703 256.347 224.636 256.308 224.555 256.28C224.473 256.253 224.375 256.238 224.263 256.236H223.514ZM223.514 255.679H224.111C224.233 255.677 224.341 255.663 224.434 255.637C224.528 255.61 224.603 255.57 224.66 255.516C224.708 255.474 224.744 255.423 224.769 255.363C224.796 255.302 224.809 255.234 224.809 255.157C224.809 255.076 224.798 255.005 224.775 254.945C224.754 254.885 224.721 254.834 224.677 254.794C224.62 254.737 224.543 254.696 224.446 254.67C224.351 254.645 224.238 254.631 224.108 254.629H223.514V255.679Z" fill="white"/>
<path d="M222.707 256.286C222.707 256.454 222.691 256.613 222.659 256.765C222.627 256.914 222.581 257.053 222.521 257.182C222.458 257.31 222.379 257.428 222.285 257.535C222.192 257.642 222.085 257.731 221.965 257.802C221.856 257.865 221.736 257.913 221.605 257.947C221.476 257.982 221.336 258 221.186 258C221.027 258 220.879 257.98 220.745 257.941C220.61 257.902 220.487 257.847 220.376 257.775C220.267 257.701 220.17 257.611 220.084 257.505C219.998 257.398 219.925 257.278 219.867 257.144C219.815 257.021 219.775 256.888 219.746 256.743C219.72 256.599 219.707 256.447 219.707 256.286V255.719C219.707 255.548 219.722 255.386 219.752 255.233C219.784 255.079 219.83 254.938 219.89 254.807C219.948 254.684 220.018 254.573 220.101 254.473C220.185 254.373 220.282 254.288 220.39 254.217C220.497 254.147 220.617 254.094 220.75 254.056C220.883 254.019 221.028 254 221.183 254C221.341 254 221.488 254.02 221.625 254.059C221.763 254.096 221.888 254.151 221.999 254.222C222.109 254.29 222.206 254.372 222.288 254.468C222.372 254.564 222.445 254.67 222.505 254.786C222.57 254.918 222.62 255.062 222.654 255.219C222.689 255.376 222.707 255.543 222.707 255.719V256.286ZM221.906 255.714C221.906 255.614 221.9 255.52 221.889 255.43C221.879 255.34 221.864 255.256 221.841 255.179C221.813 255.083 221.775 254.997 221.729 254.922C221.682 254.846 221.626 254.783 221.563 254.735C221.512 254.7 221.455 254.672 221.391 254.652C221.329 254.633 221.26 254.623 221.183 254.623C221.11 254.623 221.043 254.632 220.984 254.65C220.925 254.668 220.873 254.693 220.826 254.727C220.762 254.777 220.708 254.84 220.663 254.914C220.62 254.989 220.586 255.077 220.562 255.176C220.543 255.253 220.529 255.337 220.52 255.428C220.512 255.519 220.508 255.614 220.508 255.714V256.286C220.508 256.381 220.512 256.471 220.52 256.559C220.527 256.646 220.54 256.727 220.559 256.802C220.58 256.897 220.61 256.983 220.649 257.061C220.69 257.138 220.738 257.201 220.792 257.249C220.843 257.291 220.9 257.324 220.964 257.348C221.029 257.371 221.103 257.382 221.186 257.382C221.265 257.382 221.337 257.372 221.402 257.35C221.468 257.329 221.526 257.298 221.577 257.257C221.64 257.207 221.694 257.144 221.737 257.07C221.782 256.993 221.818 256.906 221.844 256.81C221.864 256.735 221.879 256.653 221.889 256.564C221.9 256.475 221.906 256.382 221.906 256.286V255.714Z" fill="white"/>
<path d="M218.093 256.505H217.496V258H216.707V254H218.077C218.303 254 218.508 254.027 218.691 254.08C218.874 254.131 219.032 254.207 219.163 254.308C219.292 254.408 219.391 254.534 219.46 254.684C219.531 254.834 219.567 255.008 219.567 255.206C219.567 255.349 219.549 255.478 219.513 255.593C219.48 255.707 219.431 255.809 219.367 255.898C219.302 255.99 219.223 256.07 219.132 256.137C219.042 256.205 218.941 256.264 218.829 256.313L219.707 257.964V258H218.862L218.093 256.505ZM217.496 255.879H218.079C218.201 255.879 218.308 255.863 218.399 255.83C218.493 255.795 218.569 255.745 218.627 255.681C218.675 255.63 218.712 255.569 218.736 255.497C218.762 255.426 218.775 255.346 218.775 255.258C218.775 255.152 218.758 255.059 218.725 254.978C218.693 254.896 218.644 254.828 218.579 254.775C218.521 254.727 218.45 254.69 218.366 254.665C218.281 254.639 218.185 254.626 218.077 254.626H217.496V255.879Z" fill="white"/>
<path d="M212.934 256.932C212.934 256.863 212.921 256.798 212.895 256.737C212.871 256.676 212.829 256.619 212.769 256.566C212.708 256.514 212.628 256.467 212.529 256.424C212.433 256.379 212.312 256.338 212.167 256.301C211.941 256.242 211.743 256.171 211.572 256.087C211.403 256.003 211.264 255.911 211.156 255.811C211.048 255.711 210.967 255.601 210.911 255.48C210.857 255.358 210.83 255.226 210.83 255.084C210.83 254.92 210.866 254.771 210.939 254.637C211.011 254.503 211.112 254.389 211.24 254.294C211.368 254.2 211.52 254.128 211.695 254.078C211.87 254.026 212.06 254 212.264 254C212.476 254 212.67 254.029 212.845 254.088C213.021 254.147 213.173 254.229 213.3 254.334C213.426 254.441 213.525 254.568 213.595 254.714C213.666 254.861 213.701 255.021 213.701 255.196H212.937C212.933 255.109 212.916 255.028 212.887 254.955C212.859 254.882 212.817 254.819 212.761 254.765C212.703 254.713 212.632 254.673 212.546 254.645C212.462 254.614 212.364 254.599 212.25 254.599C212.146 254.599 212.053 254.612 211.971 254.637C211.891 254.66 211.823 254.693 211.767 254.736C211.712 254.78 211.669 254.833 211.639 254.894C211.611 254.953 211.597 255.017 211.597 255.086C211.597 255.159 211.616 255.225 211.653 255.284C211.692 255.343 211.748 255.396 211.821 255.442C211.893 255.49 211.981 255.534 212.083 255.573C212.187 255.612 212.304 255.649 212.434 255.683C212.574 255.72 212.707 255.766 212.834 255.819C212.96 255.873 213.076 255.934 213.182 256.004C213.342 256.118 213.47 256.251 213.565 256.403C213.66 256.554 213.707 256.729 213.707 256.927C213.707 257.098 213.671 257.251 213.598 257.385C213.527 257.517 213.429 257.628 213.302 257.719C213.176 257.812 213.025 257.882 212.85 257.93C212.675 257.977 212.485 258 212.278 258C212.075 258 211.874 257.971 211.675 257.914C211.478 257.856 211.306 257.77 211.159 257.658C211.02 257.547 210.909 257.417 210.827 257.267C210.747 257.117 210.707 256.941 210.707 256.74H211.477C211.481 256.858 211.502 256.958 211.541 257.042C211.581 257.126 211.635 257.195 211.706 257.248C211.775 257.302 211.858 257.341 211.954 257.366C212.053 257.391 212.161 257.403 212.278 257.403C212.382 257.403 212.474 257.392 212.554 257.369C212.636 257.345 212.705 257.313 212.761 257.272C212.817 257.231 212.86 257.182 212.889 257.125C212.919 257.066 212.934 257.002 212.934 256.932Z" fill="white"/>
<path d="M208.865 256.357L208.456 256.821V258H207.707V254H208.456V255.832L208.806 255.343L209.746 254H210.659L209.358 255.769L210.707 258H209.82L208.865 256.357Z" fill="white"/>
<path d="M197.869 384.066L175.054 384.07L175.05 358.699L197.865 358.696L197.869 384.066Z" fill="#FF8700"/>
<path fill-rule="evenodd" clip-rule="evenodd" d="M175.054 379.312L197.869 379.309L197.869 380.102L175.054 380.105L175.054 379.312Z" fill="white"/>
<path fill-rule="evenodd" clip-rule="evenodd" d="M175.054 376.933L197.869 376.93L197.869 377.723L175.054 377.726L175.054 376.933Z" fill="white"/>
<path fill-rule="evenodd" clip-rule="evenodd" d="M175.05 374.555L197.865 374.551L197.865 375.344L175.05 375.347L175.05 374.555Z" fill="white"/>
<path fill-rule="evenodd" clip-rule="evenodd" d="M175.05 372.176L197.865 372.172L197.865 372.965L175.05 372.968L175.05 372.176Z" fill="white"/>
<path fill-rule="evenodd" clip-rule="evenodd" d="M175.052 369.801L197.867 369.797L197.867 370.59L175.052 370.593L175.052 369.801Z" fill="white"/>
<path fill-rule="evenodd" clip-rule="evenodd" d="M175.052 367.422L197.867 367.418L197.867 368.211L175.052 368.215L175.052 367.422Z" fill="white"/>
<path fill-rule="evenodd" clip-rule="evenodd" d="M175.054 365.043L197.869 365.039L197.869 365.832L175.054 365.836L175.054 365.043Z" fill="white"/>
<path fill-rule="evenodd" clip-rule="evenodd" d="M175.054 362.66L197.869 362.656L197.869 363.449L175.054 363.453L175.054 362.66Z" fill="white"/>
<path fill-rule="evenodd" clip-rule="evenodd" d="M175.05 360.285L197.865 360.281L197.865 361.074L175.05 361.078L175.05 360.285Z" fill="white"/>
<path d="M197.928 405.641L175.113 405.644L175.109 380.274L197.924 380.27L197.928 405.641Z" fill="#FF8700"/>
<path fill-rule="evenodd" clip-rule="evenodd" d="M175.113 400.887L197.928 400.883L197.928 401.676L175.113 401.679L175.113 400.887Z" fill="white"/>
<path fill-rule="evenodd" clip-rule="evenodd" d="M175.113 398.508L197.928 398.504L197.928 399.297L175.113 399.301L175.113 398.508Z" fill="white"/>
<path fill-rule="evenodd" clip-rule="evenodd" d="M175.109 396.129L197.924 396.125L197.924 396.918L175.109 396.922L175.109 396.129Z" fill="white"/>
<path fill-rule="evenodd" clip-rule="evenodd" d="M175.109 393.75L197.924 393.746L197.924 394.539L175.109 394.543L175.109 393.75Z" fill="white"/>
<path fill-rule="evenodd" clip-rule="evenodd" d="M175.111 391.375L197.926 391.371L197.926 392.164L175.111 392.168L175.111 391.375Z" fill="white"/>
<path fill-rule="evenodd" clip-rule="evenodd" d="M175.111 388.996L197.926 388.992L197.926 389.785L175.111 389.789L175.111 388.996Z" fill="white"/>
<path fill-rule="evenodd" clip-rule="evenodd" d="M175.113 386.617L197.928 386.613L197.928 387.406L175.113 387.41L175.113 386.617Z" fill="white"/>
<path fill-rule="evenodd" clip-rule="evenodd" d="M175.113 384.234L197.928 384.231L197.928 385.023L175.113 385.027L175.113 384.234Z" fill="white"/>
<path fill-rule="evenodd" clip-rule="evenodd" d="M175.109 381.859L197.924 381.856L197.924 382.648L175.109 382.652L175.109 381.859Z" fill="white"/>
<path d="M197.268 512.953L174.453 512.957L174.449 487.586L197.264 487.582L197.268 512.953Z" fill="#FF8700"/>
<path fill-rule="evenodd" clip-rule="evenodd" d="M174.452 508.199L197.267 508.195L197.268 508.988L174.453 508.992L174.452 508.199Z" fill="white"/>
<path fill-rule="evenodd" clip-rule="evenodd" d="M174.452 505.82L197.267 505.817L197.268 506.609L174.453 506.613L174.452 505.82Z" fill="white"/>
<path fill-rule="evenodd" clip-rule="evenodd" d="M174.449 503.441L197.264 503.438L197.264 504.23L174.449 504.234L174.449 503.441Z" fill="white"/>
<path fill-rule="evenodd" clip-rule="evenodd" d="M174.449 501.062L197.264 501.059L197.264 501.852L174.449 501.855L174.449 501.062Z" fill="white"/>
<path fill-rule="evenodd" clip-rule="evenodd" d="M174.451 498.687L197.266 498.684L197.266 499.477L174.451 499.48L174.451 498.687Z" fill="white"/>
<path fill-rule="evenodd" clip-rule="evenodd" d="M174.451 496.308L197.266 496.305L197.266 497.098L174.451 497.101L174.451 496.308Z" fill="white"/>
<path fill-rule="evenodd" clip-rule="evenodd" d="M174.452 493.93L197.267 493.926L197.268 494.719L174.453 494.722L174.452 493.93Z" fill="white"/>
<path fill-rule="evenodd" clip-rule="evenodd" d="M174.452 491.547L197.267 491.543L197.268 492.336L174.453 492.34L174.452 491.547Z" fill="white"/>
<path fill-rule="evenodd" clip-rule="evenodd" d="M174.449 489.172L197.264 489.168L197.264 489.961L174.449 489.965L174.449 489.172Z" fill="white"/>
<path d="M204.691 489.997C204.691 492.186 202.974 493.961 200.855 493.962L170.166 493.966C168.047 493.967 166.329 492.192 166.329 490.003L166.316 402.791C166.316 400.602 168.033 398.827 170.152 398.827L200.841 398.822C202.96 398.821 204.677 400.596 204.678 402.785L204.691 489.997Z" fill="#FF8700"/>
<path d="M184.829 403.202C187.257 402.422 189.838 403.823 190.592 406.332C191.347 408.841 189.99 411.507 187.561 412.287C185.133 413.067 182.552 411.665 181.798 409.157C181.043 406.648 182.4 403.982 184.829 403.202Z" fill="#B5C0C9"/>
<path fill-rule="evenodd" clip-rule="evenodd" d="M183.555 408.595C183.646 408.896 183.955 409.064 184.247 408.97L185.832 408.461L186.324 410.096C186.414 410.398 186.724 410.566 187.015 410.472C187.307 410.379 187.47 410.059 187.379 409.757L186.887 408.122L188.468 407.614C188.76 407.521 188.923 407.201 188.832 406.9C188.741 406.599 188.432 406.43 188.141 406.524L186.559 407.032L186.068 405.397C185.977 405.096 185.667 404.927 185.376 405.021C185.084 405.115 184.922 405.435 185.012 405.736L185.504 407.371L183.919 407.88C183.627 407.974 183.465 408.294 183.555 408.595Z" fill="white"/>
<path d="M184.299 478.924C186.728 478.144 189.309 479.546 190.063 482.054C190.818 484.563 189.461 487.229 187.032 488.009C184.604 488.79 182.023 487.388 181.268 484.879C180.514 482.37 181.871 479.704 184.299 478.924Z" fill="#B5C0C9"/>
<path fill-rule="evenodd" clip-rule="evenodd" d="M183.026 484.317C183.116 484.618 183.426 484.787 183.717 484.693L185.303 484.184L185.794 485.819C185.885 486.12 186.195 486.288 186.486 486.195C186.778 486.101 186.94 485.781 186.85 485.48L186.358 483.845L187.939 483.337C188.231 483.243 188.393 482.923 188.303 482.622C188.212 482.321 187.903 482.153 187.611 482.247L186.03 482.755L185.538 481.12C185.448 480.818 185.138 480.65 184.847 480.744C184.555 480.837 184.392 481.157 184.483 481.458L184.975 483.094L183.389 483.603C183.098 483.696 182.935 484.016 183.026 484.317Z" fill="white"/>
<path d="M203.572 517.028C203.572 519.217 201.855 520.992 199.736 520.993L169.047 520.996C166.928 520.996 165.21 519.222 165.21 517.033L165.209 510.578C165.209 508.388 166.926 506.613 169.045 506.613L199.735 506.609C201.853 506.609 203.571 508.384 203.571 510.573L203.572 517.028Z" fill="#FF8700"/>
<path d="M279.199 384.066L256.384 384.07L256.38 358.699L279.195 358.696L279.199 384.066Z" fill="#FF8700"/>
<path fill-rule="evenodd" clip-rule="evenodd" d="M256.384 379.312L279.199 379.309L279.199 380.102L256.384 380.105L256.384 379.312Z" fill="white"/>
<path fill-rule="evenodd" clip-rule="evenodd" d="M256.384 376.933L279.199 376.93L279.199 377.723L256.384 377.726L256.384 376.933Z" fill="white"/>
<path fill-rule="evenodd" clip-rule="evenodd" d="M256.38 374.555L279.195 374.551L279.195 375.344L256.38 375.347L256.38 374.555Z" fill="white"/>
<path fill-rule="evenodd" clip-rule="evenodd" d="M256.38 372.176L279.195 372.172L279.195 372.965L256.38 372.968L256.38 372.176Z" fill="white"/>
<path fill-rule="evenodd" clip-rule="evenodd" d="M256.382 369.801L279.197 369.797L279.197 370.59L256.382 370.593L256.382 369.801Z" fill="white"/>
<path fill-rule="evenodd" clip-rule="evenodd" d="M256.382 367.422L279.197 367.418L279.197 368.211L256.382 368.215L256.382 367.422Z" fill="white"/>
<path fill-rule="evenodd" clip-rule="evenodd" d="M256.384 365.043L279.199 365.039L279.199 365.832L256.384 365.836L256.384 365.043Z" fill="white"/>
<path fill-rule="evenodd" clip-rule="evenodd" d="M256.384 362.66L279.199 362.656L279.199 363.449L256.384 363.453L256.384 362.66Z" fill="white"/>
<path fill-rule="evenodd" clip-rule="evenodd" d="M256.38 360.285L279.195 360.281L279.195 361.074L256.38 361.078L256.38 360.285Z" fill="white"/>
<path d="M279.258 405.641L256.443 405.644L256.439 380.274L279.254 380.27L279.258 405.641Z" fill="#FF8700"/>
<path fill-rule="evenodd" clip-rule="evenodd" d="M256.443 400.887L279.258 400.883L279.258 401.676L256.443 401.679L256.443 400.887Z" fill="white"/>
<path fill-rule="evenodd" clip-rule="evenodd" d="M256.443 398.508L279.258 398.504L279.258 399.297L256.443 399.301L256.443 398.508Z" fill="white"/>
<path fill-rule="evenodd" clip-rule="evenodd" d="M256.439 396.129L279.254 396.125L279.254 396.918L256.439 396.922L256.439 396.129Z" fill="white"/>
<path fill-rule="evenodd" clip-rule="evenodd" d="M256.439 393.75L279.254 393.746L279.254 394.539L256.439 394.543L256.439 393.75Z" fill="white"/>
<path fill-rule="evenodd" clip-rule="evenodd" d="M256.441 391.375L279.256 391.371L279.256 392.164L256.441 392.168L256.441 391.375Z" fill="white"/>
<path fill-rule="evenodd" clip-rule="evenodd" d="M256.441 388.996L279.256 388.992L279.256 389.785L256.441 389.789L256.441 388.996Z" fill="white"/>
<path fill-rule="evenodd" clip-rule="evenodd" d="M256.443 386.617L279.258 386.613L279.258 387.406L256.443 387.41L256.443 386.617Z" fill="white"/>
<path fill-rule="evenodd" clip-rule="evenodd" d="M256.443 384.234L279.258 384.231L279.258 385.023L256.443 385.027L256.443 384.234Z" fill="white"/>
<path fill-rule="evenodd" clip-rule="evenodd" d="M256.439 381.859L279.254 381.856L279.254 382.648L256.439 382.652L256.439 381.859Z" fill="white"/>
<path d="M278.598 512.953L255.783 512.957L255.779 487.586L278.594 487.582L278.598 512.953Z" fill="#FF8700"/>
<path fill-rule="evenodd" clip-rule="evenodd" d="M255.783 508.199L278.598 508.195L278.598 508.988L255.783 508.992L255.783 508.199Z" fill="white"/>
<path fill-rule="evenodd" clip-rule="evenodd" d="M255.783 505.82L278.598 505.817L278.598 506.609L255.783 506.613L255.783 505.82Z" fill="white"/>
<path fill-rule="evenodd" clip-rule="evenodd" d="M255.779 503.441L278.594 503.438L278.594 504.23L255.779 504.234L255.779 503.441Z" fill="white"/>
<path fill-rule="evenodd" clip-rule="evenodd" d="M255.779 501.062L278.594 501.059L278.594 501.852L255.779 501.855L255.779 501.062Z" fill="white"/>
<path fill-rule="evenodd" clip-rule="evenodd" d="M255.781 498.687L278.596 498.684L278.596 499.477L255.781 499.48L255.781 498.687Z" fill="white"/>
<path fill-rule="evenodd" clip-rule="evenodd" d="M255.781 496.308L278.596 496.305L278.596 497.098L255.781 497.101L255.781 496.308Z" fill="white"/>
<path fill-rule="evenodd" clip-rule="evenodd" d="M255.783 493.93L278.598 493.926L278.598 494.719L255.783 494.722L255.783 493.93Z" fill="white"/>
<path fill-rule="evenodd" clip-rule="evenodd" d="M255.783 491.547L278.598 491.543L278.598 492.336L255.783 492.34L255.783 491.547Z" fill="white"/>
<path fill-rule="evenodd" clip-rule="evenodd" d="M255.779 489.172L278.594 489.168L278.594 489.961L255.779 489.965L255.779 489.172Z" fill="white"/>
<path d="M286.021 489.997C286.021 492.186 284.304 493.961 282.185 493.962L251.496 493.966C249.377 493.967 247.659 492.192 247.659 490.003L247.646 402.791C247.646 400.602 249.363 398.827 251.482 398.827L282.171 398.822C284.29 398.821 286.008 400.596 286.008 402.785L286.021 489.997Z" fill="#FF8700"/>
<path d="M266.157 403.202C268.585 402.422 271.166 403.823 271.921 406.332C272.675 408.841 271.318 411.507 268.89 412.287C266.461 413.067 263.88 411.665 263.126 409.157C262.371 406.648 263.728 403.982 266.157 403.202Z" fill="#B5C0C9"/>
<path fill-rule="evenodd" clip-rule="evenodd" d="M264.883 408.595C264.974 408.896 265.283 409.064 265.575 408.97L267.16 408.461L267.652 410.096C267.743 410.398 268.052 410.566 268.344 410.472C268.635 410.379 268.798 410.059 268.707 409.757L268.215 408.122L269.797 407.614C270.088 407.521 270.251 407.201 270.16 406.9C270.07 406.599 269.76 406.43 269.469 406.524L267.887 407.032L267.396 405.397C267.305 405.096 266.995 404.927 266.704 405.021C266.413 405.115 266.25 405.435 266.34 405.736L266.832 407.371L265.247 407.88C264.955 407.974 264.793 408.294 264.883 408.595Z" fill="white"/>
<path d="M265.629 478.924C268.058 478.144 270.639 479.546 271.393 482.054C272.148 484.563 270.791 487.229 268.362 488.009C265.934 488.79 263.353 487.388 262.598 484.879C261.844 482.37 263.201 479.704 265.629 478.924Z" fill="#B5C0C9"/>
<path fill-rule="evenodd" clip-rule="evenodd" d="M264.356 484.317C264.446 484.618 264.756 484.787 265.047 484.693L266.633 484.184L267.125 485.819C267.215 486.12 267.525 486.288 267.816 486.195C268.108 486.101 268.271 485.781 268.18 485.48L267.688 483.845L269.269 483.337C269.561 483.243 269.723 482.923 269.633 482.622C269.542 482.321 269.233 482.153 268.941 482.247L267.36 482.755L266.868 481.12C266.778 480.818 266.468 480.65 266.177 480.744C265.885 480.837 265.722 481.157 265.813 481.458L266.305 483.094L264.719 483.603C264.428 483.696 264.265 484.016 264.356 484.317Z" fill="white"/>
<path d="M284.9 517.028C284.9 519.217 283.183 520.992 281.064 520.993L250.375 520.996C248.256 520.996 246.538 519.222 246.538 517.033L246.537 510.578C246.537 508.388 248.255 506.613 250.373 506.613L281.063 506.609C283.181 506.609 284.899 508.384 284.899 510.573L284.9 517.028Z" fill="#FF8700"/>
</g>
<defs>
<filter id="filter0_d_883_7368" x="15.8047" y="0" width="413.316" height="532.996" filterUnits="userSpaceOnUse" color-interpolation-filters="sRGB">
<feFlood flood-opacity="0" result="BackgroundImageFix"/>
<feColorMatrix in="SourceAlpha" type="matrix" values="0 0 0 0 0 0 0 0 0 0 0 0 0 0 0 0 0 0 127 0" result="hardAlpha"/>
<feOffset dx="10" dy="12"/>
<feComposite in2="hardAlpha" operator="out"/>
<feColorMatrix type="matrix" values="0 0 0 0 0 0 0 0 0 0 0 0 0 0 0 0 0 0 0.25 0"/>
<feBlend mode="normal" in2="BackgroundImageFix" result="effect1_dropShadow_883_7368"/>
<feBlend mode="normal" in="SourceGraphic" in2="effect1_dropShadow_883_7368" result="shape"/>
</filter>
<filter id="filter1_i_883_7368" x="169.707" y="37" width="31" height="32" filterUnits="userSpaceOnUse" color-interpolation-filters="sRGB">
<feFlood flood-opacity="0" result="BackgroundImageFix"/>
<feBlend mode="normal" in="SourceGraphic" in2="BackgroundImageFix" result="shape"/>
<feColorMatrix in="SourceAlpha" type="matrix" values="0 0 0 0 0 0 0 0 0 0 0 0 0 0 0 0 0 0 127 0" result="hardAlpha"/>
<feOffset dy="7"/>
<feComposite in2="hardAlpha" operator="arithmetic" k2="-1" k3="1"/>
<feColorMatrix type="matrix" values="0 0 0 0 0 0 0 0 0 0 0 0 0 0 0 0 0 0 0.25 0"/>
<feBlend mode="normal" in2="shape" result="effect1_innerShadow_883_7368"/>
</filter>
<filter id="filter2_i_883_7368" x="177.707" y="49" width="15" height="13" filterUnits="userSpaceOnUse" color-interpolation-filters="sRGB">
<feFlood flood-opacity="0" result="BackgroundImageFix"/>
<feBlend mode="normal" in="SourceGraphic" in2="BackgroundImageFix" result="shape"/>
<feColorMatrix in="SourceAlpha" type="matrix" values="0 0 0 0 0 0 0 0 0 0 0 0 0 0 0 0 0 0 127 0" result="hardAlpha"/>
<feOffset dy="5"/>
<feComposite in2="hardAlpha" operator="arithmetic" k2="-1" k3="1"/>
<feColorMatrix type="matrix" values="0 0 0 0 1 0 0 0 0 1 0 0 0 0 1 0 0 0 0.25 0"/>
<feBlend mode="normal" in2="shape" result="effect1_innerShadow_883_7368"/>
</filter>
<filter id="filter3_i_883_7368" x="249.707" y="37" width="31" height="32" filterUnits="userSpaceOnUse" color-interpolation-filters="sRGB">
<feFlood flood-opacity="0" result="BackgroundImageFix"/>
<feBlend mode="normal" in="SourceGraphic" in2="BackgroundImageFix" result="shape"/>
<feColorMatrix in="SourceAlpha" type="matrix" values="0 0 0 0 0 0 0 0 0 0 0 0 0 0 0 0 0 0 127 0" result="hardAlpha"/>
<feOffset dy="7"/>
<feComposite in2="hardAlpha" operator="arithmetic" k2="-1" k3="1"/>
<feColorMatrix type="matrix" values="0 0 0 0 0 0 0 0 0 0 0 0 0 0 0 0 0 0 0.25 0"/>
<feBlend mode="normal" in2="shape" result="effect1_innerShadow_883_7368"/>
</filter>
<filter id="filter4_i_883_7368" x="258.707" y="49" width="14" height="13" filterUnits="userSpaceOnUse" color-interpolation-filters="sRGB">
<feFlood flood-opacity="0" result="BackgroundImageFix"/>
<feBlend mode="normal" in="SourceGraphic" in2="BackgroundImageFix" result="shape"/>
<feColorMatrix in="SourceAlpha" type="matrix" values="0 0 0 0 0 0 0 0 0 0 0 0 0 0 0 0 0 0 127 0" result="hardAlpha"/>
<feOffset dy="5"/>
<feComposite in2="hardAlpha" operator="arithmetic" k2="-1" k3="1"/>
<feColorMatrix type="matrix" values="0 0 0 0 1 0 0 0 0 1 0 0 0 0 1 0 0 0 0.25 0"/>
<feBlend mode="normal" in2="shape" result="effect1_innerShadow_883_7368"/>
</filter>
<filter id="filter5_d_883_7368" x="286.707" y="10" width="9.3" height="10.3" filterUnits="userSpaceOnUse" color-interpolation-filters="sRGB">
<feFlood flood-opacity="0" result="BackgroundImageFix"/>
<feColorMatrix in="SourceAlpha" type="matrix" values="0 0 0 0 0 0 0 0 0 0 0 0 0 0 0 0 0 0 127 0" result="hardAlpha"/>
<feOffset dx="0.3" dy="0.3"/>
<feComposite in2="hardAlpha" operator="out"/>
<feColorMatrix type="matrix" values="0 0 0 0 1 0 0 0 0 1 0 0 0 0 1 0 0 0 1 0"/>
<feBlend mode="normal" in2="BackgroundImageFix" result="effect1_dropShadow_883_7368"/>
<feBlend mode="normal" in="SourceGraphic" in2="effect1_dropShadow_883_7368" result="shape"/>
</filter>
<filter id="filter6_d_883_7368" x="187.709" y="96" width="78" height="32" filterUnits="userSpaceOnUse" color-interpolation-filters="sRGB">
<feFlood flood-opacity="0" result="BackgroundImageFix"/>
<feColorMatrix in="SourceAlpha" type="matrix" values="0 0 0 0 0 0 0 0 0 0 0 0 0 0 0 0 0 0 127 0" result="hardAlpha"/>
<feOffset dx="2" dy="2"/>
<feComposite in2="hardAlpha" operator="out"/>
<feColorMatrix type="matrix" values="0 0 0 0 1 0 0 0 0 1 0 0 0 0 1 0 0 0 1 0"/>
<feBlend mode="normal" in2="BackgroundImageFix" result="effect1_dropShadow_883_7368"/>
<feBlend mode="normal" in="SourceGraphic" in2="effect1_dropShadow_883_7368" result="shape"/>
</filter>
<filter id="filter7_d_883_7368" x="202.709" y="203" width="44" height="39" filterUnits="userSpaceOnUse" color-interpolation-filters="sRGB">
<feFlood flood-opacity="0" result="BackgroundImageFix"/>
<feColorMatrix in="SourceAlpha" type="matrix" values="0 0 0 0 0 0 0 0 0 0 0 0 0 0 0 0 0 0 127 0" result="hardAlpha"/>
<feOffset dx="1" dy="1"/>
<feComposite in2="hardAlpha" operator="out"/>
<feColorMatrix type="matrix" values="0 0 0 0 0.74902 0 0 0 0 0.74902 0 0 0 0 0.74902 0 0 0 1 0"/>
<feBlend mode="normal" in2="BackgroundImageFix" result="effect1_dropShadow_883_7368"/>
<feBlend mode="normal" in="SourceGraphic" in2="effect1_dropShadow_883_7368" result="shape"/>
</filter>
</defs>
</svg>
